# xmcd
#
# Track frame offsets:
#	150
#	21948
#	46788
#	67718
#	82238
#	104778
#	123655
#	134358
#	155435
#	170218
#
# Disc length: 2638 seconds
#
# Revision: 1
# Processed by: cddbd v1.4PL0 Copyright (c) Steve Scherf et al.
# Submitted via: CDmax 1.9
#
DISCID=8c0a4c0a
DTITLE=Chris Rea - Dancing Down The Stony Road, CD1
DYEAR=2002
DGENRE=Blues
TTITLE0=Easy Rider
TTITLE1=Stony Road
TTITLE2=Dancing The Blues Away
TTITLE3=Catfish Girl
TTITLE4=Burning Feet
TTITLE5=Slow Dance
TTITLE6=Segway
TTITLE7=Mississippi
TTITLE8=So Lonely
TTITLE9=Heading For The City
EXTD=
EXTT0=
EXTT1=
EXTT2=
EXTT3=
EXTT4=
EXTT5=
EXTT6=
EXTT7=
EXTT8=
EXTT9=
PLAYORDER=
